<?xml version="1.0" encoding="utf-8"?>
<!-- Generator: Adobe Illustrator 27.5.0, SVG Export Plug-In . SVG Version: 6.00 Build 0)  -->
<svg version="1.1" xmlns="http://www.w3.org/2000/svg" xmlns:xlink="http://www.w3.org/1999/xlink" x="0px" y="0px"
	 viewBox="0 0 1122 1122" style="enable-background:new 0 0 1122 1122;" xml:space="preserve">
<g id="Object">
	<g>
		<path style="fill:#fff;" d="M512.11,364.078c0-52.154-42.24-94.412-94.376-94.412c-52.172,0-94.412,42.258-94.412,94.412
			c0,35.386,19.487,66.182,48.304,82.344l1.961-62.612c0-25.643,20.81-46.434,46.471-46.434h2.605
			c20.204,0,36.594,16.373,36.594,36.578v74.809C490.547,433.376,512.11,401.276,512.11,364.078z"/>
		<path style="fill:#616E7D;" d="M459.258,373.954c0-20.205-16.389-36.578-36.594-36.578h-2.605
			c-25.661,0-46.471,20.791-46.471,46.434l-1.961,62.612l-4.323,138.014c-0.987,4.248-1.593,100.189-1.593,100.189
			c-8.079-8.252-17.103-17.693-25.24-26.756c-18.94-21.131-53.721-35.368-76.852-37.989c-12.18-1.416-21.509,0.26-27.664,4.926
			c-2.021,1.51-3.927,3.193-5.798,5.005c-11.895,11.762-20.922,30.759-12.594,44.673c3.619,6.079,9.819,10.103,16.371,14.352
			c8.727,5.664,23.433,11.783,34.424,25.851c18.54,23.639,61.328,76.51,87.634,104.737c5.438,3.401,17.03,14.957,22.504,17.884
			c16.598,10.594,30.176,20.583,34.879,25.999c3.682,4.212,25.397,15.333,25.397,15.333c17.56,11.139,49.567,21.524,86.481,21.524
			s70.355,2.212,95.112-19.561h1.379l0.602-1.658c25.225-23.058,40.842-55.007,40.842-90.354c0-8.725,0-40.976,0-47.04V619.65
			c0-8.306-1.81-36.046-25.152-44.392c-11.196-3.982-21.808-2.472-30.832,1.416l-2.136,0.112l-0.659,0.042
			c-4.043-15.242-14.162-25.098-29.156-27.703c-18.126-3.135-30.663,2.285-38.198,7.741c-7.517-16.126-22.583-24.529-42.921-22.828
			c-15.294,1.304-26.623,8.803-34.875,18.692V448.764V373.954z"/>
		<path style="fill:#fff;" d="M868.422,385.81c7.856-6.681,14.746-12.518,19.675-16.671c2.454-2.097,4.418-3.758,5.777-4.911
			l1.549-1.322l0.405-0.339l0.085-0.055l0.018-0.042h0.036l0.024-0.019c7.381-6.267,11.666-15.463,11.681-25.149
			c0-9.722-4.224-18.94-11.608-25.228l-104.062-88.726c-2.757-2.36-6.945-2.042-9.329,0.754l-34.282,40.222
			c-2.367,2.771-2.024,6.945,0.765,9.305l35.973,30.684l-213.823,0.018c-1.77,0-3.477,0.702-4.703,1.946
			c-1.21,1.21-1.906,2.929-1.906,4.663v52.853c0,1.757,0.695,3.44,1.924,4.684c1.207,1.229,2.914,1.925,4.684,1.925h213.254
			c-5.622,4.814-11.045,9.459-15.839,13.578c-5.12,4.378-9.574,8.231-13.087,11.311c-1.764,1.528-3.286,2.869-4.548,4
			c-1.304,1.174-2.324,2.097-3.459,3.192c-1.28,1.229-1.982,2.869-2.036,4.645c-0.022,1.758,0.638,3.417,1.867,4.703l36.747,38.013
			c2.473,2.548,6.552,2.678,9.193,0.281l1.719-1.567l-0.036,0.036c3.87-3.435,12.386-10.818,22.62-19.581
			C833.112,415.795,852.711,399.143,868.422,385.81z"/>
	</g>
</g>
</svg>
